<?xml version="1.0" encoding="UTF-8"?>
<svg xmlns="http://www.w3.org/2000/svg" xmlns:xlink="http://www.w3.org/1999/xlink" width="12px" height="12px" viewBox="0 0 12 12" version="1.1">
<g id="surface1">
<path style=" stroke:none;fill-rule:nonzero;fill:rgb(100%,100%,100%);fill-opacity:1;" d="M 0 0 L 0 12 L 12 12 L 12 0 Z M 7.324219 4.984375 L 7.257812 5.878906 L 6.335938 5.878906 L 6.335938 8.996094 L 5.171875 8.996094 L 5.171875 5.878906 L 4.550781 5.878906 L 4.550781 4.984375 L 5.171875 4.984375 L 5.171875 4.378906 C 5.171875 4.117188 5.179688 3.707031 5.371094 3.449219 C 5.574219 3.179688 5.855469 2.996094 6.335938 2.996094 C 7.117188 2.996094 7.445312 3.109375 7.445312 3.109375 L 7.292969 4.027344 C 7.292969 4.027344 7.035156 3.953125 6.792969 3.953125 C 6.550781 3.953125 6.335938 4.039062 6.335938 4.28125 L 6.335938 4.984375 Z M 7.324219 4.984375 "/>
</g>
</svg>
