<?xml version="1.0" encoding="UTF-8"?>
<svg xmlns="http://www.w3.org/2000/svg" xmlns:xlink="http://www.w3.org/1999/xlink" width="12px" height="12px" viewBox="0 0 12 12" version="1.1">
<g id="surface1">
<path style="fill-rule:nonzero;fill:rgb(100%,100%,100%);fill-opacity:1;stroke-width:1;stroke-linecap:butt;stroke-linejoin:miter;stroke:rgb(100%,100%,100%);stroke-opacity:1;stroke-miterlimit:4;" d="M 19.757812 10.773438 L 19.671875 10.421875 L 12.226562 10.421875 L 12.226562 13.578125 L 16.679688 13.578125 C 16.429688 14.546875 15.867188 15.398438 15.078125 16 C 14.289062 16.609375 13.3125 16.929688 12.320312 16.921875 C 11.023438 16.90625 9.773438 16.414062 8.820312 15.53125 C 8.351562 15.070312 7.976562 14.515625 7.726562 13.914062 C 7.46875 13.304688 7.335938 12.65625 7.328125 12 C 7.34375 10.679688 7.867188 9.414062 8.789062 8.46875 C 9.726562 7.578125 10.976562 7.085938 12.273438 7.101562 C 13.375 7.109375 14.445312 7.523438 15.273438 8.257812 L 17.46875 6 C 16.023438 4.703125 14.140625 3.992188 12.203125 4 C 11.132812 3.992188 10.070312 4.195312 9.078125 4.601562 C 8.09375 5.007812 7.1875 5.601562 6.429688 6.351562 C 4.984375 7.851562 4.171875 9.851562 4.148438 11.9375 C 4.132812 14.023438 4.921875 16.03125 6.34375 17.5625 C 7.125 18.34375 8.0625 18.96875 9.09375 19.382812 C 10.125 19.804688 11.226562 20.015625 12.34375 20 C 13.351562 20.007812 14.351562 19.8125 15.28125 19.421875 C 16.210938 19.03125 17.046875 18.453125 17.75 17.726562 C 19.125 16.21875 19.867188 14.234375 19.828125 12.1875 C 19.84375 11.71875 19.820312 11.242188 19.757812 10.773438 Z M 19.757812 10.773438 " transform="matrix(0.5,0,0,0.5,0,0)"/>
</g>
</svg>
