<?xml version="1.0" encoding="UTF-8"?>
<svg xmlns="http://www.w3.org/2000/svg" xmlns:xlink="http://www.w3.org/1999/xlink" width="12px" height="12px" viewBox="0 0 12 12" version="1.1">
<g id="surface1">
<path style="fill-rule:nonzero;fill:rgb(100%,100%,100%);fill-opacity:1;stroke-width:1;stroke-linecap:butt;stroke-linejoin:miter;stroke:rgb(100%,100%,100%);stroke-opacity:1;stroke-miterlimit:4;" d="M -14.600006 321.175786 C -24.031386 325.432427 -34.213938 328.186724 -44.813807 329.52214 C -33.880084 323.011984 -25.617193 312.662505 -21.694407 300.393365 C -31.876959 306.40274 -43.061073 310.826307 -55.079823 313.163286 C -64.67813 302.980735 -78.36615 296.637506 -93.473051 296.637506 C -122.518363 296.637506 -146.138545 320.174224 -146.138545 349.219536 C -146.138545 353.309249 -145.721227 357.315499 -144.719664 361.238285 C -188.371096 358.98477 -227.181642 338.118885 -253.138803 306.235813 C -257.56237 313.997922 -260.233203 323.011984 -260.233203 332.693755 C -260.233203 350.888806 -250.885287 366.997269 -236.779949 376.512113 C -245.376693 376.178259 -253.472657 373.84128 -260.567058 369.918493 L -260.567058 370.502738 C -260.567058 395.959118 -242.538933 417.325784 -218.41797 422.083206 C -222.841538 423.335159 -227.515496 424.002867 -232.272918 424.002867 C -235.694923 424.002867 -239.033464 423.669013 -242.205079 423.084768 C -235.527996 444.034117 -216.080991 459.224481 -193.128517 459.558335 C -211.073179 473.663673 -233.775261 482.093491 -258.397006 482.093491 C -262.570182 482.093491 -266.826823 481.926564 -271 481.425782 C -247.713672 496.282292 -220.087241 504.962501 -190.374221 504.962501 C -93.639978 504.962501 -40.724094 424.837502 -40.724094 355.312374 C -40.724094 352.975395 -40.724094 350.721879 -40.807558 348.468364 C -30.541542 341.040109 -21.610943 331.775656 -14.600006 321.175786 " transform="matrix(0.0468019,0,0,0.0468019,12.683308,-12.758191)"/>
</g>
</svg>
