<svg viewBox="0 0 79.7137 18" xmlns="http://www.w3.org/2000/svg" xmlns:xlink="http://www.w3.org/1999/xlink" width="79.713745" height="18.000000" fill="none" customFrame="#000000">
	<rect id="projeco-logo-black" width="79.527275" height="18.000000" x="0.065308" y="0.000000" />
	<path id="KONSTRU T" d="M3.29891 10.2993L2.52 11.7654L2.52 16.6909L0 16.6909L0 0.654527L2.52 0.654527L2.52 7.6418L5.81891 0.654527L8.33891 0.654527L4.83382 7.80216L8.33891 16.6909L5.75018 16.6909L3.29891 10.2993ZM11.8963 13.0025C11.8963 13.5829 12.0147 13.9914 12.2514 14.2282C12.4881 14.4649 12.805 14.5833 13.2021 14.5833C13.5992 14.5833 13.9161 14.4649 14.1528 14.2282C14.3896 13.9914 14.5079 13.5829 14.5079 13.0025L14.5079 4.34289C14.5079 3.76252 14.3896 3.35398 14.1528 3.11725C13.9161 2.88052 13.5992 2.76216 13.2021 2.76216C12.805 2.76216 12.4881 2.88052 12.2514 3.11725C12.0147 3.35398 11.8963 3.76252 11.8963 4.34289L11.8963 13.0025ZM9.37643 4.50325C9.37643 3.20506 9.70479 2.20853 10.3615 1.51362C11.0183 0.818703 11.9651 0.471252 13.2022 0.471252C14.4393 0.471252 15.3862 0.818703 16.043 1.51362C16.6997 2.20853 17.0281 3.20506 17.0281 4.50325L17.0281 12.8422C17.0281 14.1403 16.6997 15.1369 16.043 15.8318C15.3862 16.5267 14.4393 16.8742 13.2022 16.8742C11.9651 16.8742 11.0183 16.5267 10.3615 15.8318C9.70479 15.1369 9.37643 14.1403 9.37643 12.8422L9.37643 4.50325ZM21.158 5.07598L21.158 16.6909L18.89 16.6909L18.89 0.654527L22.0515 0.654527L24.6402 10.2534L24.6402 0.654527L26.8853 0.654527L26.8853 16.6909L24.2966 16.6909L21.158 5.07598ZM28.6332 4.50325C28.6332 3.20506 28.9425 2.20853 29.5611 1.51362C30.1796 0.818703 31.1074 0.471252 32.3445 0.471252C33.5816 0.471252 34.5094 0.818703 35.128 1.51362C35.7465 2.20853 36.0558 3.20506 36.0558 4.50325L36.0558 5.00725L33.6732 5.00725L33.6732 4.34289C33.6732 3.76252 33.5625 3.35398 33.3411 3.11725C33.1196 2.88052 32.8103 2.76216 32.4132 2.76216C32.0161 2.76216 31.7069 2.88052 31.4854 3.11725C31.264 3.35398 31.1532 3.76252 31.1532 4.34289C31.1532 4.89271 31.2754 5.37761 31.5198 5.79762C31.7641 6.21762 32.0696 6.61471 32.4361 6.98889C32.8027 7.36307 33.196 7.73725 33.616 8.11143C34.036 8.48562 34.4292 8.89416 34.7958 9.33707C35.1623 9.77998 35.4678 10.284 35.7121 10.8491C35.9565 11.4142 36.0787 12.0785 36.0787 12.8422C36.0787 14.1403 35.7618 15.1369 35.128 15.8318C34.4941 16.5267 33.5587 16.8742 32.3216 16.8742C31.0845 16.8742 30.1491 16.5267 29.5152 15.8318C28.8814 15.1369 28.5645 14.1403 28.5645 12.8422L28.5645 11.8571L30.9471 11.8571L30.9471 13.0025C30.9471 13.5829 31.0654 13.9876 31.3021 14.2167C31.5389 14.4458 31.8558 14.5603 32.2529 14.5603C32.65 14.5603 32.9669 14.4458 33.2036 14.2167C33.4403 13.9876 33.5587 13.5829 33.5587 13.0025C33.5587 12.4527 33.4365 11.9678 33.1921 11.5478C32.9478 11.1278 32.6423 10.7307 32.2758 10.3565C31.9092 9.98234 31.516 9.60816 31.096 9.23398C30.676 8.8598 30.2827 8.45125 29.9161 8.00834C29.5496 7.56543 29.2441 7.06144 28.9998 6.49634C28.7554 5.93125 28.6332 5.26689 28.6332 4.50325ZM37.0471 0.654527L44.8362 0.654527L44.8362 2.94544L42.2017 2.94544L42.2017 16.6909L39.6817 16.6909L39.6817 2.94544L37.0471 2.94544L37.0471 0.654527ZM51.4637 16.6909C51.4332 16.584 51.4026 16.4847 51.3721 16.3931C51.3415 16.3014 51.3148 16.1869 51.2919 16.0494C51.269 15.912 51.2537 15.7363 51.2461 15.5225C51.2384 15.3087 51.2346 15.0414 51.2346 14.7207L51.2346 12.2007C51.2346 11.4523 51.1048 10.9254 50.8451 10.62C50.5855 10.3145 50.1655 10.1618 49.5851 10.1618L48.7146 10.1618L48.7146 16.6909L46.1946 16.6909L46.1946 0.654527L49.9975 0.654527C51.311 0.654527 52.2617 0.959978 52.8497 1.57089C53.4377 2.1818 53.7317 3.10579 53.7317 4.34289L53.7317 5.60289C53.7317 7.25235 53.1819 8.33671 52.0822 8.85598C52.7237 9.11562 53.1628 9.53943 53.3995 10.1274C53.6362 10.7154 53.7546 11.4294 53.7546 12.2694L53.7546 14.7436C53.7546 15.1407 53.7699 15.4882 53.8004 15.786C53.831 16.0838 53.9073 16.3854 54.0295 16.6909L51.4637 16.6909ZM48.7145 2.94544L48.7145 7.87089L49.6996 7.87089C50.173 7.87089 50.5434 7.74871 50.8107 7.50435C51.0779 7.25998 51.2116 6.81708 51.2116 6.17562L51.2116 4.59489C51.2116 4.01452 51.1085 3.59453 50.9023 3.33489C50.6961 3.07525 50.3716 2.94544 49.9287 2.94544L48.7145 2.94544ZM58.068 0.654527L58.068 13.0254C58.068 13.6058 58.1864 14.0105 58.4231 14.2396C58.6598 14.4687 58.9767 14.5833 59.3738 14.5833C59.7709 14.5833 60.0878 14.4687 60.3246 14.2396C60.5613 14.0105 60.6796 13.6058 60.6796 13.0254L60.6796 0.654527L63.0622 0.654527L63.0622 12.8651C63.0622 14.1633 62.7453 15.1598 62.1115 15.8547C61.4776 16.5496 60.5422 16.8971 59.3051 16.8971C58.068 16.8971 57.1326 16.5496 56.4987 15.8547C55.8649 15.1598 55.548 14.1633 55.548 12.8651L55.548 0.654527L58.068 0.654527ZM71.9247 0.654527L79.7138 0.654527L79.7138 2.94544L77.0793 2.94544L77.0793 16.6909L74.5593 16.6909L74.5593 2.94544L71.9247 2.94544L71.9247 0.654527Z" fill="rgb(23,24,25)" fill-rule="evenodd" />
	<path id="Triangle" d="M64.2593 8.9884L70.8047 0.80658L70.8047 17.1702L64.2593 8.9884Z" fill="rgb(0,164,229)" fill-rule="evenodd" />
	<path id="Triangle" d="M70.8047 0.80658L70.8047 17.1702L64.2593 8.9884L70.8047 0.80658Z" fill-rule="evenodd" stroke="rgb(150.96,150.96,150.96)" stroke-opacity="0" stroke-width="0" />
</svg>
