<svg viewBox="0 0 101.857 23" xmlns="http://www.w3.org/2000/svg" xmlns:xlink="http://www.w3.org/1999/xlink" width="101.856567" height="23.000000" fill="none" customFrame="#000000">
	<rect id="projeco-logo" width="101.618179" height="23.000000" x="0.083496" y="0.000000" />
	<path id="KONSTRU T" d="M4.21527 13.1602L3.22 15.0336L3.22 21.3273L0 21.3273L0 0.836356L3.22 0.836356L3.22 9.76454L7.43527 0.836356L10.6553 0.836356L6.17655 9.96945L10.6553 21.3273L7.34745 21.3273L4.21527 13.1602ZM15.2009 16.6144C15.2009 17.3559 15.3521 17.878 15.6546 18.1804C15.9571 18.4829 16.362 18.6342 16.8694 18.6342C17.3768 18.6342 17.7817 18.4829 18.0842 18.1804C18.3867 17.878 18.5379 17.3559 18.5379 16.6144L18.5379 5.54926C18.5379 4.80768 18.3867 4.28566 18.0842 3.98317C17.7817 3.68069 17.3768 3.52945 16.8694 3.52945C16.362 3.52945 15.9571 3.68069 15.6546 3.98317C15.3521 4.28566 15.2009 4.80768 15.2009 5.54926L15.2009 16.6144ZM11.981 5.75417C11.981 4.09538 12.4005 2.82203 13.2397 1.93408C14.0788 1.04614 15.2888 0.602173 16.8695 0.602173C18.4502 0.602173 19.6602 1.04614 20.4993 1.93408C21.3385 2.82203 21.7581 4.09538 21.7581 5.75417L21.7581 16.4094C21.7581 18.0682 21.3385 19.3416 20.4993 20.2295C19.6602 21.1175 18.4502 21.5614 16.8695 21.5614C15.2888 21.5614 14.0788 21.1175 13.2397 20.2295C12.4005 19.3416 11.981 18.0682 11.981 16.4094L11.981 5.75417ZM27.0353 6.48599L27.0353 21.3273L24.1373 21.3273L24.1373 0.836356L28.177 0.836356L31.4848 13.1016L31.4848 0.836356L34.3535 0.836356L34.3535 21.3273L31.0457 21.3273L27.0353 6.48599ZM36.5868 5.75417C36.5868 4.09538 36.982 2.82203 37.7724 1.93408C38.5628 1.04614 39.7483 0.602173 41.329 0.602173C42.9098 0.602173 44.0953 1.04614 44.8857 1.93408C45.676 2.82203 46.0712 4.09538 46.0712 5.75417L46.0712 6.39817L43.0269 6.39817L43.0269 5.54926C43.0269 4.80768 42.8854 4.28566 42.6024 3.98317C42.3194 3.68069 41.9242 3.52945 41.4169 3.52945C40.9095 3.52945 40.5143 3.68069 40.2313 3.98317C39.9483 4.28566 39.8069 4.80768 39.8069 5.54926C39.8069 6.25181 39.963 6.87141 40.2752 7.40808C40.5875 7.94475 40.9778 8.45214 41.4461 8.93026C41.9145 9.40839 42.417 9.8865 42.9537 10.3646C43.4903 10.8428 43.9928 11.3648 44.4612 11.9307C44.9296 12.4967 45.3199 13.1407 45.6321 13.8627C45.9444 14.5848 46.1005 15.4337 46.1005 16.4094C46.1005 18.0682 45.6956 19.3416 44.8857 20.2295C44.0758 21.1175 42.8805 21.5614 41.2998 21.5614C39.719 21.5614 38.5237 21.1175 37.7138 20.2295C36.904 19.3416 36.499 18.0682 36.499 16.4094L36.499 15.1507L39.5434 15.1507L39.5434 16.6144C39.5434 17.3559 39.6946 17.8731 39.9971 18.1658C40.2996 18.4585 40.7045 18.6049 41.2119 18.6049C41.7193 18.6049 42.1243 18.4585 42.4268 18.1658C42.7292 17.8731 42.8805 17.3559 42.8805 16.6144C42.8805 15.9118 42.7244 15.2922 42.4121 14.7555C42.0999 14.2189 41.7096 13.7115 41.2412 13.2334C40.7728 12.7552 40.2703 12.2771 39.7337 11.799C39.197 11.3209 38.6945 10.7988 38.2261 10.2329C37.7578 9.66696 37.3675 9.02296 37.0552 8.3009C36.743 7.57884 36.5868 6.72994 36.5868 5.75417ZM47.3381 0.836356L57.2908 0.836356L57.2908 3.76363L53.9244 3.76363L53.9244 21.3273L50.7044 21.3273L50.7044 3.76363L47.3381 3.76363L47.3381 0.836356ZM65.7591 21.3273C65.7201 21.1907 65.6811 21.0638 65.642 20.9467C65.603 20.8296 65.5689 20.6833 65.5396 20.5076C65.5103 20.332 65.4908 20.1076 65.481 19.8344C65.4713 19.5611 65.4664 19.2196 65.4664 18.8098L65.4664 15.5898C65.4664 14.6336 65.3005 13.9603 64.9688 13.57C64.637 13.1797 64.1003 12.9845 63.3588 12.9845L62.2464 12.9845L62.2464 21.3273L59.0264 21.3273L59.0264 0.836356L63.8857 0.836356C65.564 0.836356 66.7788 1.22666 67.5301 2.00727C68.2815 2.78788 68.6571 3.96853 68.6571 5.54927L68.6571 7.15927C68.6571 9.26691 67.9546 10.6525 66.5495 11.316C67.3691 11.6478 67.9302 12.1893 68.2327 12.9406C68.5352 13.692 68.6864 14.6043 68.6864 15.6776L68.6864 18.8391C68.6864 19.3465 68.7059 19.7904 68.7449 20.171C68.784 20.5515 68.8816 20.937 69.0377 21.3273L65.7591 21.3273ZM62.2463 3.76363L62.2463 10.0573L63.505 10.0573C64.11 10.0573 64.5833 9.90115 64.9248 9.5889C65.2663 9.27666 65.437 8.71072 65.437 7.89108L65.437 5.87127C65.437 5.12969 65.3053 4.59302 65.0419 4.26126C64.7784 3.92951 64.3637 3.76363 63.7978 3.76363L62.2463 3.76363ZM74.198 0.836356L74.198 16.6436C74.198 17.3852 74.3492 17.9024 74.6517 18.1951C74.9542 18.4878 75.3592 18.6342 75.8665 18.6342C76.3739 18.6342 76.7789 18.4878 77.0814 18.1951C77.3839 17.9024 77.5351 17.3852 77.5351 16.6436L77.5351 0.836356L80.5795 0.836356L80.5795 16.4387C80.5795 18.0975 80.1745 19.3709 79.3646 20.2588C78.5548 21.1468 77.3595 21.5907 75.7787 21.5907C74.198 21.5907 73.0027 21.1468 72.1928 20.2588C71.3829 19.3709 70.978 18.0975 70.978 16.4387L70.978 0.836356L74.198 0.836356ZM91.9038 0.836356L101.857 0.836356L101.857 3.76363L98.4902 3.76363L98.4902 21.3273L95.2702 21.3273L95.2702 3.76363L91.9038 3.76363L91.9038 0.836356Z" fill="rgb(255,255,255)" fill-rule="evenodd" />
	<path id="Triangle" d="M82.109 11.4852L90.4726 1.03061L90.4726 21.9397L82.109 11.4852Z" fill="rgb(0,164,229)" fill-rule="evenodd" />
	<path id="Triangle" d="M90.4726 1.03061L90.4726 21.9397L82.109 11.4852L90.4726 1.03061Z" fill-rule="evenodd" stroke="rgb(150.96,150.96,150.96)" stroke-opacity="0" stroke-width="0" />
</svg>
